<?xml version="1.0" encoding="iso-8859-1"?>
<!-- Generator: Adobe Illustrator 19.0.0, SVG Export Plug-In . SVG Version: 6.00 Build 0)  -->
<svg version="1.1" id="Layer_1" xmlns="http://www.w3.org/2000/svg" xmlns:xlink="http://www.w3.org/1999/xlink" x="0px" y="0px"
	 viewBox="0 0 512 512" style="enable-background:new 0 0 512 512;" xml:space="preserve">
<path style="fill:#70E5CF;" d="M419.947,0H92.041C72.059,0,55.848,16.211,55.848,36.192v439.615
	c0,19.981,16.211,36.192,36.192,36.192h327.918c19.994,0,36.192-16.211,36.192-36.192V36.217C456.152,16.211,439.94,0,419.947,0z"/>
<path style="fill:#35D8B9;" d="M80.002,475.807V36.192C80.002,16.211,96.213,0,116.194,0H92.041
	C72.059,0,55.848,16.211,55.848,36.192v439.615c0,19.981,16.211,36.192,36.192,36.192h24.153
	C96.213,512,80.002,495.789,80.002,475.807z"/>
<rect x="102.375" y="84.961" style="fill:#FFFFFF;" width="307.261" height="357.16"/>
<rect x="102.375" y="84.961" style="fill:#F2F2F2;" width="22.106" height="357.16"/>
<path style="fill:#F95428;" d="M349.944,72.227v12.734c0,20.056-16.259,36.315-36.315,36.315H198.383
	c-20.064,0-36.328-16.264-36.328-36.328V72.227c0-5.685,4.608-10.293,10.293-10.293H339.65
	C345.335,61.934,349.944,66.542,349.944,72.227z"/>
<path style="fill:#E54728;" d="M179.249,84.949V72.227c0-5.685,4.608-10.293,10.293-10.293h-17.194
	c-5.685,0-10.293,4.608-10.293,10.293v12.722c0,20.064,16.264,36.328,36.328,36.328h17.194
	C195.513,121.276,179.249,105.012,179.249,84.949z"/>
<g>
	<path style="fill:#666666;" d="M205.65,207.555h-67.546v-67.546h67.546V207.555z M152.841,192.817h38.071v-38.071h-38.071
		C152.841,154.746,152.841,192.817,152.841,192.817z"/>
	<rect x="235.122" y="192.814" style="fill:#666666;" width="125.267" height="14.737"/>
	<path style="fill:#666666;" d="M205.65,298.435h-67.546v-67.546h67.546V298.435z M152.841,283.698h38.071v-38.071h-38.071
		C152.841,245.626,152.841,283.698,152.841,283.698z"/>
	<rect x="235.122" y="283.694" style="fill:#666666;" width="125.267" height="14.737"/>
	<path style="fill:#666666;" d="M205.65,389.315h-67.546v-67.546h67.546V389.315z M152.841,374.578h38.071v-38.072h-38.071
		C152.841,336.506,152.841,374.578,152.841,374.578z"/>
	<rect x="235.122" y="374.574" style="fill:#666666;" width="125.267" height="14.737"/>
</g>
<g>
</g>
<g>
</g>
<g>
</g>
<g>
</g>
<g>
</g>
<g>
</g>
<g>
</g>
<g>
</g>
<g>
</g>
<g>
</g>
<g>
</g>
<g>
</g>
<g>
</g>
<g>
</g>
<g>
</g>
</svg>
